<svg xmlns="http://www.w3.org/2000/svg" width="37.263" height="32.605" viewBox="0 0 37.263 32.605">
  <g id="camera-line" transform="translate(0 0)">
    <path id="Path_11" data-name="Path 11" d="M36.934,8.658h-8.5L27.2,5.491A2.329,2.329,0,0,0,25.033,4h-8.8a2.329,2.329,0,0,0-2.178,1.491L12.83,8.658h-8.5A2.329,2.329,0,0,0,2,10.987V34.276a2.329,2.329,0,0,0,2.329,2.329H36.934a2.329,2.329,0,0,0,2.329-2.329V10.987A2.329,2.329,0,0,0,36.934,8.658Zm0,25.618H4.329V10.987h10.1l1.8-4.658h8.8l1.8,4.658h10.1Z" transform="translate(-2 -4)" fill="#fff"/>
    <path id="Path_12" data-name="Path 12" d="M9,20.48A10.48,10.48,0,1,0,19.48,10,10.48,10.48,0,0,0,9,20.48Zm19.1,0a8.617,8.617,0,1,1-8.617-8.617A8.617,8.617,0,0,1,28.1,20.48Z" transform="translate(-0.849 -3.013)" fill="#fff"/>
    <path id="Path_13" data-name="Path 13" d="M10.028,12.962A.932.932,0,0,0,9.1,12.03H6.3a.932.932,0,1,0,0,1.863H9.1a.932.932,0,0,0,.932-.932Z" transform="translate(-1.446 -2.679)" fill="#fff"/>
    <path id="Path_14" data-name="Path 14" d="M12.34,19.921a6.486,6.486,0,0,0,3.773,5.822l.99-1.6a4.658,4.658,0,1,1,4.786-7.7l1-1.607a6.474,6.474,0,0,0-10.55,5.077Z" transform="translate(-0.299 -2.454)" fill="#fff"/>
  </g>
</svg>
