<svg xmlns="http://www.w3.org/2000/svg" width="35.339" height="32.393" viewBox="0 0 35.339 32.393">
  <g id="image-gallery" transform="translate(0 0)">
    <g id="Group_849" data-name="Group 849" transform="translate(0 11.339)">
      <path id="Path_15" data-name="Path 15" d="M25.7,30.755a2.937,2.937,0,0,1-.751-.1l-22.768-6.1A2.972,2.972,0,0,1,.1,20.953L2.97,10.246a.736.736,0,1,1,1.422.38L1.521,21.33a1.494,1.494,0,0,0,1.045,1.81l22.759,6.094A1.466,1.466,0,0,0,27.117,28.2l1.15-4.261a.736.736,0,0,1,1.422.383l-1.148,4.255A2.941,2.941,0,0,1,25.7,30.755Z" transform="translate(0 -9.701)" fill="#fff"/>
    </g>
    <g id="Group_850" data-name="Group 850" transform="translate(5.889 0)">
      <path id="Path_16" data-name="Path 16" d="M30.5,25.559H6.945A2.948,2.948,0,0,1,4,22.614V4.945A2.948,2.948,0,0,1,6.945,2H30.5a2.948,2.948,0,0,1,2.945,2.945V22.614A2.948,2.948,0,0,1,30.5,25.559ZM6.945,3.472A1.475,1.475,0,0,0,5.472,4.945V22.614a1.475,1.475,0,0,0,1.472,1.472H30.5a1.475,1.475,0,0,0,1.472-1.472V4.945A1.475,1.475,0,0,0,30.5,3.472Z" transform="translate(-4 -2)" fill="#fff"/>
    </g>
    <g id="Group_851" data-name="Group 851" transform="translate(10.306 4.417)">
      <path id="Path_17" data-name="Path 17" d="M9.945,10.89A2.945,2.945,0,1,1,12.89,7.945,2.948,2.948,0,0,1,9.945,10.89Zm0-4.417a1.472,1.472,0,1,0,1.472,1.472A1.475,1.475,0,0,0,9.945,6.472Z" transform="translate(-7 -5)" fill="#fff"/>
    </g>
    <g id="Group_852" data-name="Group 852" transform="translate(5.992 8.172)">
      <path id="Path_18" data-name="Path 18" d="M4.806,21.361a.735.735,0,0,1-.521-1.256l6.954-6.954a2.263,2.263,0,0,1,3.123,0l2.07,2.07,5.731-6.876a2.212,2.212,0,0,1,1.682-.8h.016a2.207,2.207,0,0,1,1.677.77l7.7,8.985a.736.736,0,0,1-1.118.959l-7.7-8.985a.728.728,0,0,0-.56-.256.782.782,0,0,0-.565.265l-6.248,7.5a.733.733,0,0,1-.533.264.709.709,0,0,1-.554-.215l-2.64-2.64a.756.756,0,0,0-1.041,0L5.326,21.146a.734.734,0,0,1-.52.215Z" transform="translate(-4.07 -7.55)" fill="#fff"/>
    </g>
  </g>
</svg>
