<svg id="Layer_1" data-name="Layer 1" xmlns="http://www.w3.org/2000/svg" viewBox="0 0 200 62.77"><g id="Start"><g id="rect"><path id="Path_31" data-name="Path 31" d="M61.07,62.73,45.74,0H31.26a31.38,31.38,0,0,0,0,62.76Z" transform="translate(-0.08 0.03)" fill="#673bb7"/><path id="Path_32" data-name="Path 32" d="M200.08,31.35a30.17,30.17,0,0,0-9.91-22.19A35.06,35.06,0,0,0,166.26,0H51.47L68,62.73h98.27a36.12,36.12,0,0,0,23.91-9.19A30.17,30.17,0,0,0,200.08,31.35Z" transform="translate(-0.08 0.03)" fill="#673bb7"/><path id="Path_4" data-name="Path 4" d="M43.15,29l-17.67-11c-2.49-1.55-5.87.07-5.87,2.82V42.81c0,2.75,3.38,4.38,5.87,2.82l17.67-11a3.26,3.26,0,0,0,1.2-4.45A3.21,3.21,0,0,0,43.15,29Z" transform="translate(-0.08 0.03)" fill="#fff"/></g></g></svg>